HIERARCHY
ROOT Hips
{
	OFFSET 0.00 0.00 0.00
	CHANNELS 6 Xposition Yposition Zposition Xrotation Yrotation Zrotation
	JOINT LeftUpLeg
	{
		OFFSET 3.25772 0.00000 0.00000
		CHANNELS 3 Xrotation Yrotation Zrotation
		JOINT LeftLeg
		{
			OFFSET 0.00000 -15.35355 0.00000
			CHANNELS 3 Xrotation Yrotation Zrotation
			JOINT LeftFoot
			{
				OFFSET 0.00000 -16.48949 0.00000
				CHANNELS 3 Xrotation Yrotation Zrotation
				JOINT LeftToeBase
				{
					OFFSET 0.00000 -1.72224 6.42750
					CHANNELS 3 Xrotation Yrotation Zrotation
					End Site
					{
						OFFSET 0.00000 0.00000 2.95275
					}
				}
			}
		}
	}
	JOINT RightUpLeg
	{
		OFFSET -3.25772 0.00000 0.00000
		CHANNELS 3 Xrotation Yrotation Zrotation
		JOINT RightLeg
		{
			OFFSET 0.00000 -15.35355 0.00000
			CHANNELS 3 Xrotation Yrotation Zrotation
			JOINT RightFoot
			{
				OFFSET 0.00000 -16.48949 0.00000
				CHANNELS 3 Xrotation Yrotation Zrotation
				JOINT RightToeBase
				{
					OFFSET 0.00000 -1.72224 6.42750
					CHANNELS 3 Xrotation Yrotation Zrotation
					End Site
					{
						OFFSET 0.00000 0.00000 2.95275
					}
				}
			}
		}
	}
	JOINT Spine
	{
		OFFSET 0.00000 0.03937 0.00000
		CHANNELS 3 Xrotation Yrotation Zrotation
		JOINT Spine1
		{
			OFFSET 0.00000 10.14986 0.00000
			CHANNELS 3 Xrotation Yrotation Zrotation
			JOINT Neck
			{
				OFFSET 0.00000 9.84250 0.00000
				CHANNELS 3 Xrotation Yrotation Zrotation
				JOINT Head
				{
					OFFSET 0.00000 4.54023 0.00000
					CHANNELS 3 Xrotation Yrotation Zrotation
					End Site
					{
						OFFSET 0.00000 4.52755 0.00000
					}
				}
			}
			JOINT LeftShoulder
			{
				OFFSET 0.00000 9.84250 0.00000
				CHANNELS 3 Xrotation Yrotation Zrotation
				JOINT LeftArm
				{
					OFFSET 7.21510 -0.00003 0.00000
					CHANNELS 3 Xrotation Yrotation Zrotation
					JOINT LeftForeArm
					{
						OFFSET 10.66411 -0.00004 0.00000
						CHANNELS 3 Xrotation Yrotation Zrotation
						JOINT LeftHand
						{
							OFFSET 8.93656 -0.00003 0.00000
							CHANNELS 3 Xrotation Yrotation Zrotation
							JOINT L_Wrist_End
							{
								OFFSET 3.93700 -0.00001 0.00000
								CHANNELS 3 Xrotation Yrotation Zrotation
							}
						}
					}
				}
			}
			JOINT RightShoulder
			{
				OFFSET 0.00000 9.84250 0.00000
				CHANNELS 3 Xrotation Yrotation Zrotation
				JOINT RightArm
				{
					OFFSET -7.21510 -0.00003 0.00000
					CHANNELS 3 Xrotation Yrotation Zrotation
					JOINT RightForeArm
					{
						OFFSET -10.66411 -0.00004 0.00000
						CHANNELS 3 Xrotation Yrotation Zrotation
						JOINT RightHand
						{
							OFFSET -8.93656 -0.00003 0.00000
							CHANNELS 3 Xrotation Yrotation Zrotation
							JOINT R_Wrist_End
							{
								OFFSET -5.41338 -0.00002 0.00000
								CHANNELS 3 Xrotation Yrotation Zrotation
							}
						}
					}
				}
			}
		}
	}
}
MOTION
Frames: 15
Frame Time: 0.008333
 -0.0930 33.8763 2.9781 -0.0878 -0.8700 -2.5081 5.3600 23.1949 7.1651 2.2506 0.0000 0.0000 -2.2314 2.1375 0.8474 -33.9345 0.0000 -0.0000 6.0245 2.9752 0.3798 3.2199 -0.0000 0.0000 -1.2460 -10.0258 -0.0580 -31.7644 0.0000 0.0000 -15.5842 -1.1368 -3.3925 27.4903 4.0313 3.8932 -21.2724 -17.3264 6.6895 -6.9529 -5.4655 -15.8332 9.5949 10.5356 14.6638 -23.1471 15.8005 -33.5271 -0.0000 -10.6326 -0.0000 -5.5347 2.2905 21.4669 -0.0000 0.0000 -0.0000 8.6220 -6.8384 -16.3189 -12.3749 -7.8328 26.9524 -0.0001 20.6795 0.0000 -20.9041 -12.7462 -18.6458 -0.0000 0.0000 -0.0000
 -0.0889 33.8795 2.9830 -0.0721 -0.8494 -2.5008 5.4037 23.0863 7.1232 2.1904 0.0000 0.0000 -2.1422 2.2129 0.8406 -34.0087 0.0000 0.0000 6.0169 2.9270 0.3643 3.2273 -0.0000 0.0000 -1.1892 -9.9724 -0.0178 -31.8100 0.0000 0.0000 -15.5937 -1.1515 -3.4042 27.5055 4.0213 3.9019 -21.7655 -17.6908 6.4802 -6.2081 -5.1879 -15.6943 9.5864 10.5420 14.6192 -23.1796 15.8730 -33.4970 -0.0000 -10.7381 -0.0000 -5.5209 2.3549 21.3622 -0.0000 -0.0000 0.0000 8.6391 -6.8739 -16.3096 -12.5189 -7.8806 26.9422 -0.0001 20.7790 0.0000 -20.8323 -12.8744 -18.5854 -0.0000 -0.0000 0.0000
 -0.0892 33.8787 2.9876 -0.0704 -0.8805 -2.4909 5.3722 23.1508 7.1263 2.2705 -0.0000 -0.0000 -2.2030 2.1913 0.8654 -34.0046 0.0000 0.0000 6.0173 3.0860 0.3617 3.2273 -0.0000 0.0000 -1.2131 -10.1271 -0.0008 -31.7904 0.0000 0.0000 -15.5829 -1.1500 -3.4170 27.4961 4.0281 3.9045 -21.9305 -17.8411 6.3349 -5.9116 -5.0316 -15.5046 9.5267 10.5473 14.6187 -23.0666 15.8473 -33.5101 -0.0000 -10.7189 -0.0000 -5.4653 2.3727 21.3818 -0.0000 0.0000 -0.0000 8.6006 -6.8429 -16.3148 -12.4166 -7.8351 26.9346 -0.0001 20.7826 0.0000 -21.0130 -12.8932 -18.7316 -0.0000 0.0000 -0.0000
 -0.0882 33.8799 2.9908 -0.0599 -0.8881 -2.4914 5.3812 23.1695 7.1193 2.2396 0.0000 0.0000 -2.1748 2.1805 0.8865 -34.0076 0.0000 0.0000 6.0290 2.8856 0.3630 3.1891 -0.0000 0.0000 -1.1807 -9.9637 0.0241 -31.8574 0.0000 0.0000 -15.5883 -1.1563 -3.4220 27.4931 4.0230 3.9075 -22.0307 -17.9581 6.2566 -5.7343 -4.9543 -15.4350 9.5158 10.5506 14.6023 -23.0122 15.8455 -33.5134 -0.0000 -10.7510 -0.0000 -5.5138 2.4065 21.3741 -0.0000 -0.0000 0.0000 8.5909 -6.8333 -16.3050 -12.4638 -7.8282 26.9214 -0.0001 20.7797 0.0000 -20.9391 -12.9372 -18.7525 -0.0000 0.0000 -0.0000
 -0.0854 33.8788 2.9929 -0.0577 -0.8870 -2.4904 5.3850 23.1784 7.1123 2.2401 -0.0000 0.0000 -2.1718 2.1613 0.8674 -34.0187 0.0000 -0.0000 6.0177 2.7718 0.3836 3.1510 -0.0000 0.0000 -1.4475 -10.0185 0.4478 -31.2807 0.0000 0.0000 -15.5827 -1.1560 -3.4232 27.5022 4.0240 3.9070 -22.0602 -17.9697 6.2507 -5.7246 -4.9433 -15.4133 9.5008 10.5480 14.5991 -23.0171 15.8498 -33.5177 -0.0000 -10.7342 -0.0000 -5.4348 2.3802 21.3143 -0.0000 0.0000 -0.0000 8.6159 -6.8392 -16.3011 -12.4335 -7.8217 26.9256 -0.0001 20.7934 0.0000 -20.9582 -12.8486 -18.7422 -0.0000 -0.0000 0.0000
 -0.0812 33.8779 2.9958 -0.0508 -0.8850 -2.4863 5.3947 23.1725 7.0994 2.2240 0.0000 -0.0000 -2.1826 2.1672 0.8922 -34.0058 0.0000 0.0000 5.9993 2.6172 0.3723 3.1783 -0.0000 0.0000 -1.4799 -9.8756 0.5234 -31.2847 0.0000 -0.0000 -15.5716 -1.1592 -3.4232 27.4833 4.0247 3.9133 -22.1412 -18.0500 6.1738 -5.5852 -4.8496 -15.3504 9.4845 10.5459 14.6108 -22.9833 15.8474 -33.5585 -0.0000 -10.7027 -0.0000 -5.3888 2.3096 21.3238 -0.0000 0.0000 -0.0000 8.5785 -6.8481 -16.3032 -12.4348 -7.8008 26.9066 -0.0001 20.8320 0.0000 -21.0536 -13.0144 -18.7861 -0.0000 -0.0000 0.0000
 -0.0786 33.8782 2.9995 -0.0427 -0.8729 -2.4798 5.3827 23.2902 7.1026 2.2153 -0.0000 0.0000 -2.1945 2.0168 0.8777 -33.9819 0.0000 -0.0000 5.9971 2.4761 0.3665 3.1883 -0.0000 0.0000 -1.4837 -9.7692 0.4646 -31.2730 0.0000 -0.0000 -15.5765 -1.1564 -3.4262 27.4867 4.0253 3.9088 -22.2205 -18.1500 6.1120 -5.4550 -4.7910 -15.2802 9.5246 10.5528 14.5916 -23.0605 15.8576 -33.5523 -0.0000 -10.7389 -0.0000 -5.4383 2.4237 21.2998 -0.0000 -0.0000 0.0000 8.6218 -6.8799 -16.2935 -12.5417 -7.8338 26.9069 -0.0001 20.8520 0.0000 -20.9424 -13.0126 -18.6927 -0.0000 0.0000 -0.0000
 -0.0757 33.8788 3.0017 -0.0332 -0.8776 -2.4775 5.3887 23.2667 7.0902 2.2135 0.0000 0.0000 -2.1640 2.0220 0.8878 -34.0429 0.0000 -0.0000 5.9966 2.5464 0.3558 3.1732 -0.0000 0.0000 -1.4732 -9.8215 0.4708 -31.2687 0.0000 -0.0000 -15.5726 -1.1615 -3.4270 27.4882 4.0192 3.9081 -22.2503 -18.1499 6.1089 -5.4258 -4.7539 -15.2689 9.4996 10.5527 14.5866 -22.9913 15.8419 -33.5717 -0.0000 -10.7224 -0.0000 -5.5079 2.4327 21.3078 -0.0000 -0.0000 0.0000 8.5279 -6.8716 -16.3042 -12.4614 -7.7912 26.9089 -0.0001 20.8315 0.0000 -20.9438 -12.9926 -18.6468 -0.0000 0.0000 -0.0000
 -0.0748 33.8779 3.0044 -0.0302 -0.8771 -2.4773 5.3856 23.2837 7.0872 2.2188 0.0000 0.0000 -2.1917 2.0206 0.8901 -33.9570 0.0000 0.0000 5.9999 2.5390 0.3531 3.1720 -0.0000 0.0000 -1.4869 -9.8177 0.4980 -31.2754 0.0000 -0.0000 -15.5717 -1.1611 -3.4279 27.4904 4.0195 3.9073 -22.2586 -18.1704 6.0975 -5.4237 -4.7495 -15.2597 9.4764 10.5523 14.5857 -23.0093 15.8520 -33.5691 -0.0000 -10.6865 -0.0000 -5.4155 2.3864 21.2603 -0.0000 0.0000 -0.0000 8.5468 -6.8695 -16.2974 -12.4206 -7.7723 26.9188 -0.0001 20.8320 0.0000 -20.9380 -12.9642 -18.7910 -0.0000 0.0000 -0.0000
 -0.0747 33.8779 3.0093 -0.0273 -0.8797 -2.4759 5.3880 23.2740 7.0901 2.2336 0.0000 0.0000 -2.2085 2.0331 0.8977 -33.9881 0.0000 -0.0000 5.9961 2.5731 0.3499 3.1912 -0.0000 0.0000 -1.4639 -9.8336 0.4600 -31.3449 0.0000 -0.0000 -15.5742 -1.1610 -3.4321 27.4874 4.0171 3.9026 -22.2640 -18.2017 6.0935 -5.4258 -4.7608 -15.2526 9.4595 10.5557 14.5844 -22.9887 15.8501 -33.5757 -0.0000 -10.7058 -0.0000 -5.5000 2.4461 21.2653 -0.0000 0.0000 -0.0000 8.5572 -6.8692 -16.3005 -12.4301 -7.7630 26.9201 -0.0001 20.8468 0.0000 -20.9559 -13.0644 -18.7125 -0.0000 0.0000 -0.0000
 -0.0716 33.8777 3.0120 -0.0178 -0.8739 -2.4667 5.4032 23.2879 7.0716 2.1976 -0.0000 0.0000 -2.1791 1.9921 0.9050 -33.9937 0.0000 0.0000 5.9767 2.6568 0.3390 3.2276 -0.0000 0.0000 -1.5019 -9.9290 0.4829 -31.3045 0.0000 0.0000 -15.5815 -1.1783 -3.4406 27.4890 3.9940 3.8969 -22.2958 -18.2260 6.0859 -5.3455 -4.6997 -15.2485 9.4927 10.5714 14.5821 -22.9780 15.8815 -33.5904 -0.0000 -10.6969 -0.0000 -5.5010 2.4279 21.2031 -0.0000 0.0000 -0.0000 8.6177 -6.8754 -16.2978 -12.4403 -7.6877 26.9321 -0.0001 20.8239 0.0000 -21.0146 -12.9872 -18.7367 -0.0000 0.0000 -0.0000
 -0.0710 33.8787 3.0161 -0.0153 -0.8704 -2.4650 5.4064 23.2774 7.0708 2.2010 -0.0000 0.0000 -2.1802 2.0000 0.9183 -33.9946 0.0000 -0.0000 5.9683 2.6425 0.3375 3.2413 -0.0000 0.0000 -1.4953 -9.9130 0.4295 -31.3144 0.0000 0.0000 -15.5822 -1.1762 -3.4436 27.4834 3.9936 3.8919 -22.2861 -18.2563 6.0829 -5.3739 -4.7215 -15.2373 9.4693 10.5736 14.5805 -22.9766 15.8774 -33.5961 -0.0000 -10.7195 -0.0000 -5.5864 2.4767 21.2169 -0.0000 0.0000 -0.0000 8.6275 -6.8781 -16.2969 -12.4495 -7.6912 26.9389 -0.0001 20.8374 0.0000 -20.9891 -13.0986 -18.7298 -0.0000 0.0000 -0.0000
 -0.0678 33.8775 3.0213 -0.0074 -0.8657 -2.4649 5.4043 23.1995 7.0536 2.2335 -0.0000 0.0000 -2.2229 2.1096 0.9071 -33.9538 0.0000 0.0000 5.9772 2.5273 0.3310 3.2335 -0.0000 0.0000 -1.5106 -9.8123 0.5286 -31.3146 0.0000 0.0000 -15.5847 -1.1834 -3.4424 27.4716 3.9822 3.8887 -22.2995 -18.2807 6.0551 -5.2730 -4.6643 -15.1815 9.4402 10.5702 14.6061 -22.9204 15.8890 -33.6250 -0.0000 -10.7092 -0.0000 -5.6161 2.5126 21.2214 -0.0000 0.0000 -0.0000 8.6617 -6.8821 -16.2949 -12.5127 -7.6873 26.9328 -0.0001 20.8417 0.0000 -21.0409 -13.1377 -18.6976 -0.0000 -0.0000 0.0000
 -0.0670 33.8779 3.0245 -0.0052 -0.8643 -2.4633 5.4015 23.2122 7.0589 2.2386 -0.0000 0.0000 -2.2138 2.0925 0.9089 -33.9577 0.0000 0.0000 5.9712 2.5174 0.3308 3.2505 -0.0000 0.0000 -1.5065 -9.8037 0.4811 -31.3491 0.0000 0.0000 -15.5824 -1.1831 -3.4434 27.4712 3.9808 3.8855 -22.3030 -18.3106 6.0402 -5.2979 -4.6698 -15.1798 9.4362 10.5756 14.6012 -22.9186 15.8983 -33.6321 -0.0000 -10.7082 -0.0000 -5.7187 2.4412 21.1090 -0.0000 -0.0000 0.0000 8.6157 -6.8853 -16.2948 -12.5407 -7.6995 26.9330 -0.0001 20.8185 0.0000 -20.9234 -13.1125 -18.6035 -0.0000 0.0000 -0.0000
 -0.0650 33.8776 3.0288 -0.0031 -0.8581 -2.4616 5.3923 23.2754 7.0626 2.2513 -0.0000 0.0000 -2.2179 2.0265 0.9174 -33.9266 0.0000 0.0000 5.9690 2.4160 0.3268 3.2703 -0.0000 0.0000 -1.5420 -9.7529 0.4991 -31.2906 0.0000 -0.0000 -15.5860 -1.1853 -3.4453 27.4695 3.9760 3.8820 -22.2995 -18.3194 6.0411 -5.2476 -4.6583 -15.1544 9.4512 10.5753 14.5966 -22.9523 15.9132 -33.6307 -0.0000 -10.6942 -0.0000 -5.6562 2.4712 21.1099 -0.0000 0.0000 -0.0000 8.6184 -6.8970 -16.2914 -12.5179 -7.6804 26.9274 -0.0001 20.8732 0.0000 -20.9767 -13.2143 -18.6341 -0.0000 -0.0000 0.0000
